{"asset":{"version":"2.0","generator":"lualore make_mirror_sentinel.py"},"scene":0,"scenes":[{"nodes":[0]}],"nodes":[{"name":"root","children":[1,2,3,4]},{"name":"core"},{"name":"orbit"},{"name":"crown"},{"name":"sentinel_mesh","mesh":0,"skin":0}],"skins":[{"joints":[1,2,3],"skeleton":0,"inverseBindMatrices":6}],"meshes":[{"name":"mirror_sentinel","primitives":[{"attributes":{"POSITION":0,"NORMAL":1,"TEXCOORD_0":2,"JOINTS_0":3,"WEIGHTS_0":4},"indices":5,"material":0}]}],"materials":[{"name":"sentinel","pbrMetallicRoughness":{"baseColorFactor":[1,1,1,1],"metallicFactor":0.0,"roughnessFactor":0.85}}],"animations":[{"name":"idle","samplers":[{"input":7,"output":8,"interpolation":"LINEAR"},{"input":9,"output":10,"interpolation":"LINEAR"},{"input":11,"output":12,"interpolation":"LINEAR"},{"input":13,"output":14,"interpolation":"LINEAR"}],"channels":[{"sampler":0,"target":{"node":1,"path":"translation"}},{"sampler":1,"target":{"node":2,"path":"translation"}},{"sampler":2,"target":{"node":2,"path":"rotation"}},{"sampler":3,"target":{"node":3,"path":"rotation"}}]}],"bufferViews":[{"buffer":0,"byteOffset":0,"byteLength":5184,"target":34962},{"buffer":0,"byteOffset":5184,"byteLength":5184,"target":34962},{"buffer":0,"byteOffset":10368,"byteLength":3456,"target":34962},{"buffer":0,"byteOffset":13824,"byteLength":3456,"target":34962},{"buffer":0,"byteOffset":17280,"byteLength":6912,"target":34962},{"buffer":0,"byteOffset":24192,"byteLength":1296,"target":34963},{"buffer":0,"byteOffset":25488,"byteLength":192},{"buffer":0,"byteOffset":25680,"byteLength":20},{"buffer":0,"byteOffset":25700,"byteLength":60},{"buffer":0,"byteOffset":25760,"byteLength":20},{"buffer":0,"byteOffset":25780,"byteLength":60},{"buffer":0,"byteOffset":25840,"byteLength":20},{"buffer":0,"byteOffset":25860,"byteLength":80},{"buffer":0,"byteOffset":25940,"byteLength":12},{"buffer":0,"byteOffset":25952,"byteLength":48}],"accessors":[{"bufferView":0,"componentType":5126,"count":432,"type":"VEC3","min":[-10.0,-13.0,-10.0],"max":[10.0,15.0,10.0]},{"bufferView":1,"componentType":5126,"count":432,"type":"VEC3"},{"bufferView":2,"componentType":5126,"count":432,"type":"VEC2"},{"bufferView":3,"componentType":5123,"count":432,"type":"VEC4"},{"bufferView":4,"componentType":5126,"count":432,"type":"VEC4"},{"bufferView":5,"componentType":5123,"count":648,"type":"SCALAR"},{"bufferView":6,"componentType":5126,"count":3,"type":"MAT4"},{"bufferView":7,"componentType":5126,"count":5,"type":"SCALAR"},{"bufferView":8,"componentType":5126,"count":5,"type":"VEC3"},{"bufferView":9,"componentType":5126,"count":5,"type":"SCALAR"},{"bufferView":10,"componentType":5126,"count":5,"type":"VEC3"},{"bufferView":11,"componentType":5126,"count":5,"type":"SCALAR"},{"bufferView":12,"componentType":5126,"count":5,"type":"VEC4"},{"bufferView":13,"componentType":5126,"count":3,"type":"SCALAR"},{"bufferView":14,"componentType":5126,"count":3,"type":"VEC4"}],"buffers":[{"byteLength":26000,"uri":"data:application/octet-stream;base64,"}]}